<?xml version="1.0" encoding="UTF-8" standalone="no"?><svg xmlns="http://www.w3.org/2000/svg" xmlns:xlink="http://www.w3.org/1999/xlink" contentStyleType="text/css" height="1667px" preserveAspectRatio="none" style="width:1060px;height:1667px;background:#FFFFFF;" version="1.1" viewBox="0 0 1060 1667" width="1060px" zoomAndPan="magnify"><defs/><g><line style="stroke:#181818;stroke-width:0.5;stroke-dasharray:5.0,5.0;" x1="24" x2="24" y1="81.2969" y2="1587.0703"/><line style="stroke:#181818;stroke-width:0.5;stroke-dasharray:5.0,5.0;" x1="207.5" x2="207.5" y1="81.2969" y2="1587.0703"/><line style="stroke:#181818;stroke-width:0.5;stroke-dasharray:5.0,5.0;" x1="445.5" x2="445.5" y1="81.2969" y2="1587.0703"/><line style="stroke:#181818;stroke-width:0.5;stroke-dasharray:5.0,5.0;" x1="662.5" x2="662.5" y1="81.2969" y2="1587.0703"/><line style="stroke:#181818;stroke-width:0.5;stroke-dasharray:5.0,5.0;" x1="832" x2="832" y1="81.2969" y2="1587.0703"/><line style="stroke:#181818;stroke-width:0.5;stroke-dasharray:5.0,5.0;" x1="989.5" x2="989.5" y1="81.2969" y2="1587.0703"/><text fill="#000000" font-family="sans-serif" font-size="14" lengthAdjust="spacing" textLength="32" x="5" y="77.9951">User</text><ellipse cx="24" cy="13.5" fill="#E2E2F0" rx="8" ry="8" style="stroke:#181818;stroke-width:0.5;"/><path d="M24,21.5 L24,48.5 M11,29.5 L37,29.5 M24,48.5 L11,63.5 M24,48.5 L37,63.5 " fill="none" style="stroke:#181818;stroke-width:0.5;"/><text fill="#000000" font-family="sans-serif" font-size="14" lengthAdjust="spacing" textLength="32" x="5" y="1599.0654">User</text><ellipse cx="24" cy="1610.8672" fill="#E2E2F0" rx="8" ry="8" style="stroke:#181818;stroke-width:0.5;"/><path d="M24,1618.8672 L24,1645.8672 M11,1626.8672 L37,1626.8672 M24,1645.8672 L11,1660.8672 M24,1645.8672 L37,1660.8672 " fill="none" style="stroke:#181818;stroke-width:0.5;"/><rect fill="#E2E2F0" height="30.2969" rx="2.5" ry="2.5" style="stroke:#181818;stroke-width:0.5;" width="77" x="169.5" y="50"/><text fill="#000000" font-family="sans-serif" font-size="14" lengthAdjust="spacing" textLength="63" x="176.5" y="69.9951">Frontend</text><rect fill="#E2E2F0" height="30.2969" rx="2.5" ry="2.5" style="stroke:#181818;stroke-width:0.5;" width="77" x="169.5" y="1586.0703"/><text fill="#000000" font-family="sans-serif" font-size="14" lengthAdjust="spacing" textLength="63" x="176.5" y="1606.0654">Frontend</text><rect fill="#E2E2F0" height="30.2969" rx="2.5" ry="2.5" style="stroke:#181818;stroke-width:0.5;" width="35" x="428.5" y="50"/><text fill="#000000" font-family="sans-serif" font-size="14" lengthAdjust="spacing" textLength="21" x="435.5" y="69.9951">API</text><rect fill="#E2E2F0" height="30.2969" rx="2.5" ry="2.5" style="stroke:#181818;stroke-width:0.5;" width="35" x="428.5" y="1586.0703"/><text fill="#000000" font-family="sans-serif" font-size="14" lengthAdjust="spacing" textLength="21" x="435.5" y="1606.0654">API</text><rect fill="#E2E2F0" height="30.2969" rx="2.5" ry="2.5" style="stroke:#181818;stroke-width:0.5;" width="121" x="602.5" y="50"/><text fill="#000000" font-family="sans-serif" font-size="14" lengthAdjust="spacing" textLength="107" x="609.5" y="69.9951">UsersController</text><rect fill="#E2E2F0" height="30.2969" rx="2.5" ry="2.5" style="stroke:#181818;stroke-width:0.5;" width="121" x="602.5" y="1586.0703"/><text fill="#000000" font-family="sans-serif" font-size="14" lengthAdjust="spacing" textLength="107" x="609.5" y="1606.0654">UsersController</text><rect fill="#E2E2F0" height="30.2969" rx="2.5" ry="2.5" style="stroke:#181818;stroke-width:0.5;" width="80" x="792" y="50"/><text fill="#000000" font-family="sans-serif" font-size="14" lengthAdjust="spacing" textLength="66" x="799" y="69.9951">Database</text><rect fill="#E2E2F0" height="30.2969" rx="2.5" ry="2.5" style="stroke:#181818;stroke-width:0.5;" width="80" x="792" y="1586.0703"/><text fill="#000000" font-family="sans-serif" font-size="14" lengthAdjust="spacing" textLength="66" x="799" y="1606.0654">Database</text><rect fill="#E2E2F0" height="30.2969" rx="2.5" ry="2.5" style="stroke:#181818;stroke-width:0.5;" width="129" x="925.5" y="50"/><text fill="#000000" font-family="sans-serif" font-size="14" lengthAdjust="spacing" textLength="115" x="932.5" y="69.9951">MoviesController</text><rect fill="#E2E2F0" height="30.2969" rx="2.5" ry="2.5" style="stroke:#181818;stroke-width:0.5;" width="129" x="925.5" y="1586.0703"/><text fill="#000000" font-family="sans-serif" font-size="14" lengthAdjust="spacing" textLength="115" x="932.5" y="1606.0654">MoviesController</text><polygon fill="#181818" points="196,108.4297,206,112.4297,196,116.4297,200,112.4297" style="stroke:#181818;stroke-width:1.0;"/><line style="stroke:#181818;stroke-width:1.0;" x1="24" x2="202" y1="112.4297" y2="112.4297"/><text fill="#000000" font-family="sans-serif" font-size="13" lengthAdjust="spacing" textLength="133" x="31" y="107.3638">Fill Registration Form</text><polygon fill="#181818" points="434,137.5625,444,141.5625,434,145.5625,438,141.5625" style="stroke:#181818;stroke-width:1.0;"/><line style="stroke:#181818;stroke-width:1.0;" x1="208" x2="440" y1="141.5625" y2="141.5625"/><text fill="#000000" font-family="sans-serif" font-size="13" lengthAdjust="spacing" textLength="130" x="215" y="136.4966">POST /users/register</text><polygon fill="#181818" points="651,166.6953,661,170.6953,651,174.6953,655,170.6953" style="stroke:#181818;stroke-width:1.0;"/><line style="stroke:#181818;stroke-width:1.0;" x1="446" x2="657" y1="170.6953" y2="170.6953"/><text fill="#000000" font-family="sans-serif" font-size="13" lengthAdjust="spacing" textLength="109" x="453" y="165.6294">validate(request)</text><polygon fill="#181818" points="820,195.8281,830,199.8281,820,203.8281,824,199.8281" style="stroke:#181818;stroke-width:1.0;"/><line style="stroke:#181818;stroke-width:1.0;" x1="663" x2="826" y1="199.8281" y2="199.8281"/><text fill="#000000" font-family="sans-serif" font-size="13" lengthAdjust="spacing" textLength="130" x="670" y="194.7622">Check if email exists</text><polygon fill="#181818" points="674,224.9609,664,228.9609,674,232.9609,670,228.9609" style="stroke:#181818;stroke-width:1.0;"/><line style="stroke:#181818;stroke-width:1.0;stroke-dasharray:2.0,2.0;" x1="668" x2="831" y1="228.9609" y2="228.9609"/><text fill="#000000" font-family="sans-serif" font-size="13" lengthAdjust="spacing" textLength="100" x="680" y="223.895">Email not found</text><polygon fill="#181818" points="820,254.0938,830,258.0938,820,262.0938,824,258.0938" style="stroke:#181818;stroke-width:1.0;"/><line style="stroke:#181818;stroke-width:1.0;" x1="663" x2="826" y1="258.0938" y2="258.0938"/><text fill="#000000" font-family="sans-serif" font-size="13" lengthAdjust="spacing" textLength="93" x="670" y="253.0278">Save new user</text><polygon fill="#181818" points="674,283.2266,664,287.2266,674,291.2266,670,287.2266" style="stroke:#181818;stroke-width:1.0;"/><line style="stroke:#181818;stroke-width:1.0;stroke-dasharray:2.0,2.0;" x1="668" x2="831" y1="287.2266" y2="287.2266"/><text fill="#000000" font-family="sans-serif" font-size="13" lengthAdjust="spacing" textLength="83" x="680" y="282.1606">User created</text><polygon fill="#181818" points="457,312.3594,447,316.3594,457,320.3594,453,316.3594" style="stroke:#181818;stroke-width:1.0;"/><line style="stroke:#181818;stroke-width:1.0;stroke-dasharray:2.0,2.0;" x1="451" x2="662" y1="316.3594" y2="316.3594"/><text fill="#000000" font-family="sans-serif" font-size="13" lengthAdjust="spacing" textLength="159" x="463" y="311.2935">Response (User created)</text><polygon fill="#181818" points="219,341.4922,209,345.4922,219,349.4922,215,345.4922" style="stroke:#181818;stroke-width:1.0;"/><line style="stroke:#181818;stroke-width:1.0;stroke-dasharray:2.0,2.0;" x1="213" x2="445" y1="345.4922" y2="345.4922"/><text fill="#000000" font-family="sans-serif" font-size="13" lengthAdjust="spacing" textLength="146" x="225" y="340.4263">Registration successful</text><polygon fill="#181818" points="196,370.625,206,374.625,196,378.625,200,374.625" style="stroke:#181818;stroke-width:1.0;"/><line style="stroke:#181818;stroke-width:1.0;" x1="24" x2="202" y1="374.625" y2="374.625"/><text fill="#000000" font-family="sans-serif" font-size="13" lengthAdjust="spacing" textLength="91" x="31" y="369.5591">Fill Login Form</text><polygon fill="#181818" points="434,399.7578,444,403.7578,434,407.7578,438,403.7578" style="stroke:#181818;stroke-width:1.0;"/><line style="stroke:#181818;stroke-width:1.0;" x1="208" x2="440" y1="403.7578" y2="403.7578"/><text fill="#000000" font-family="sans-serif" font-size="13" lengthAdjust="spacing" textLength="111" x="215" y="398.6919">POST /users/login</text><polygon fill="#181818" points="651,428.8906,661,432.8906,651,436.8906,655,432.8906" style="stroke:#181818;stroke-width:1.0;"/><line style="stroke:#181818;stroke-width:1.0;" x1="446" x2="657" y1="432.8906" y2="432.8906"/><text fill="#000000" font-family="sans-serif" font-size="13" lengthAdjust="spacing" textLength="130" x="453" y="427.8247">validate(credentials)</text><polygon fill="#181818" points="820,458.0234,830,462.0234,820,466.0234,824,462.0234" style="stroke:#181818;stroke-width:1.0;"/><line style="stroke:#181818;stroke-width:1.0;" x1="663" x2="826" y1="462.0234" y2="462.0234"/><text fill="#000000" font-family="sans-serif" font-size="13" lengthAdjust="spacing" textLength="145" x="670" y="456.9575">Check user credentials</text><polygon fill="#181818" points="674,487.1563,664,491.1563,674,495.1563,670,491.1563" style="stroke:#181818;stroke-width:1.0;"/><line style="stroke:#181818;stroke-width:1.0;stroke-dasharray:2.0,2.0;" x1="668" x2="831" y1="491.1563" y2="491.1563"/><text fill="#000000" font-family="sans-serif" font-size="13" lengthAdjust="spacing" textLength="105" x="680" y="486.0903">Valid credentials</text><polygon fill="#181818" points="457,516.2891,447,520.2891,457,524.2891,453,520.2891" style="stroke:#181818;stroke-width:1.0;"/><line style="stroke:#181818;stroke-width:1.0;stroke-dasharray:2.0,2.0;" x1="451" x2="662" y1="520.2891" y2="520.2891"/><text fill="#000000" font-family="sans-serif" font-size="13" lengthAdjust="spacing" textLength="108" x="463" y="515.2231">Token generated</text><polygon fill="#181818" points="219,545.4219,209,549.4219,219,553.4219,215,549.4219" style="stroke:#181818;stroke-width:1.0;"/><line style="stroke:#181818;stroke-width:1.0;stroke-dasharray:2.0,2.0;" x1="213" x2="445" y1="549.4219" y2="549.4219"/><text fill="#000000" font-family="sans-serif" font-size="13" lengthAdjust="spacing" textLength="104" x="225" y="544.356">Login successful</text><polygon fill="#181818" points="35,574.5547,25,578.5547,35,582.5547,31,578.5547" style="stroke:#181818;stroke-width:1.0;"/><line style="stroke:#181818;stroke-width:1.0;stroke-dasharray:2.0,2.0;" x1="29" x2="207" y1="578.5547" y2="578.5547"/><text fill="#000000" font-family="sans-serif" font-size="13" lengthAdjust="spacing" textLength="121" x="41" y="573.4888">Welcome message</text><polygon fill="#181818" points="196,603.6875,206,607.6875,196,611.6875,200,607.6875" style="stroke:#181818;stroke-width:1.0;"/><line style="stroke:#181818;stroke-width:1.0;" x1="24" x2="202" y1="607.6875" y2="607.6875"/><text fill="#000000" font-family="sans-serif" font-size="13" lengthAdjust="spacing" textLength="160" x="31" y="602.6216">Search or Browse Movies</text><polygon fill="#181818" points="434,632.8203,444,636.8203,434,640.8203,438,636.8203" style="stroke:#181818;stroke-width:1.0;"/><line style="stroke:#181818;stroke-width:1.0;" x1="208" x2="440" y1="636.8203" y2="636.8203"/><text fill="#000000" font-family="sans-serif" font-size="13" lengthAdjust="spacing" textLength="214" x="215" y="631.7544">GET /movies?query=search_term</text><polygon fill="#181818" points="978,661.9531,988,665.9531,978,669.9531,982,665.9531" style="stroke:#181818;stroke-width:1.0;"/><line style="stroke:#181818;stroke-width:1.0;" x1="446" x2="984" y1="665.9531" y2="665.9531"/><text fill="#000000" font-family="sans-serif" font-size="13" lengthAdjust="spacing" textLength="85" x="453" y="660.8872">Fetch movies</text><polygon fill="#181818" points="843,691.0859,833,695.0859,843,699.0859,839,695.0859" style="stroke:#181818;stroke-width:1.0;"/><line style="stroke:#181818;stroke-width:1.0;" x1="837" x2="989" y1="695.0859" y2="695.0859"/><text fill="#000000" font-family="sans-serif" font-size="13" lengthAdjust="spacing" textLength="88" x="849" y="690.02">Query movies</text><polygon fill="#181818" points="978,720.2188,988,724.2188,978,728.2188,982,724.2188" style="stroke:#181818;stroke-width:1.0;"/><line style="stroke:#181818;stroke-width:1.0;stroke-dasharray:2.0,2.0;" x1="832" x2="984" y1="724.2188" y2="724.2188"/><text fill="#000000" font-family="sans-serif" font-size="13" lengthAdjust="spacing" textLength="59" x="839" y="719.1528">Movie list</text><polygon fill="#181818" points="457,749.3516,447,753.3516,457,757.3516,453,753.3516" style="stroke:#181818;stroke-width:1.0;"/><line style="stroke:#181818;stroke-width:1.0;stroke-dasharray:2.0,2.0;" x1="451" x2="989" y1="753.3516" y2="753.3516"/><text fill="#000000" font-family="sans-serif" font-size="13" lengthAdjust="spacing" textLength="70" x="463" y="748.2856">Movie data</text><polygon fill="#181818" points="219,778.4844,209,782.4844,219,786.4844,215,782.4844" style="stroke:#181818;stroke-width:1.0;"/><line style="stroke:#181818;stroke-width:1.0;stroke-dasharray:2.0,2.0;" x1="213" x2="445" y1="782.4844" y2="782.4844"/><text fill="#000000" font-family="sans-serif" font-size="13" lengthAdjust="spacing" textLength="110" x="225" y="777.4185">Render movie list</text><polygon fill="#181818" points="196,807.6172,206,811.6172,196,815.6172,200,811.6172" style="stroke:#181818;stroke-width:1.0;"/><line style="stroke:#181818;stroke-width:1.0;" x1="24" x2="202" y1="811.6172" y2="811.6172"/><text fill="#000000" font-family="sans-serif" font-size="13" lengthAdjust="spacing" textLength="152" x="31" y="806.5513">Write and submit review</text><polygon fill="#181818" points="434,836.75,444,840.75,434,844.75,438,840.75" style="stroke:#181818;stroke-width:1.0;"/><line style="stroke:#181818;stroke-width:1.0;" x1="208" x2="440" y1="840.75" y2="840.75"/><text fill="#000000" font-family="sans-serif" font-size="13" lengthAdjust="spacing" textLength="170" x="215" y="835.6841">POST /movies/{id}/reviews</text><polygon fill="#181818" points="978,865.8828,988,869.8828,978,873.8828,982,869.8828" style="stroke:#181818;stroke-width:1.0;"/><line style="stroke:#181818;stroke-width:1.0;" x1="446" x2="984" y1="869.8828" y2="869.8828"/><text fill="#000000" font-family="sans-serif" font-size="13" lengthAdjust="spacing" textLength="100" x="453" y="864.8169">validate(review)</text><polygon fill="#181818" points="843,895.0156,833,899.0156,843,903.0156,839,899.0156" style="stroke:#181818;stroke-width:1.0;"/><line style="stroke:#181818;stroke-width:1.0;" x1="837" x2="989" y1="899.0156" y2="899.0156"/><text fill="#000000" font-family="sans-serif" font-size="13" lengthAdjust="spacing" textLength="134" x="849" y="893.9497">Check if movie exists</text><polygon fill="#181818" points="978,924.1484,988,928.1484,978,932.1484,982,928.1484" style="stroke:#181818;stroke-width:1.0;"/><line style="stroke:#181818;stroke-width:1.0;stroke-dasharray:2.0,2.0;" x1="832" x2="984" y1="928.1484" y2="928.1484"/><text fill="#000000" font-family="sans-serif" font-size="13" lengthAdjust="spacing" textLength="78" x="839" y="923.0825">Movie exists</text><polygon fill="#181818" points="843,953.2813,833,957.2813,843,961.2813,839,957.2813" style="stroke:#181818;stroke-width:1.0;"/><line style="stroke:#181818;stroke-width:1.0;" x1="837" x2="989" y1="957.2813" y2="957.2813"/><text fill="#000000" font-family="sans-serif" font-size="13" lengthAdjust="spacing" textLength="76" x="849" y="952.2153">Save review</text><polygon fill="#181818" points="978,982.4141,988,986.4141,978,990.4141,982,986.4141" style="stroke:#181818;stroke-width:1.0;"/><line style="stroke:#181818;stroke-width:1.0;stroke-dasharray:2.0,2.0;" x1="832" x2="984" y1="986.4141" y2="986.4141"/><text fill="#000000" font-family="sans-serif" font-size="13" lengthAdjust="spacing" textLength="85" x="839" y="981.3481">Review saved</text><polygon fill="#181818" points="457,1011.5469,447,1015.5469,457,1019.5469,453,1015.5469" style="stroke:#181818;stroke-width:1.0;"/><line style="stroke:#181818;stroke-width:1.0;stroke-dasharray:2.0,2.0;" x1="451" x2="989" y1="1015.5469" y2="1015.5469"/><text fill="#000000" font-family="sans-serif" font-size="13" lengthAdjust="spacing" textLength="163" x="463" y="1010.481">Response (Review added)</text><polygon fill="#181818" points="219,1040.6797,209,1044.6797,219,1048.6797,215,1044.6797" style="stroke:#181818;stroke-width:1.0;"/><line style="stroke:#181818;stroke-width:1.0;stroke-dasharray:2.0,2.0;" x1="213" x2="445" y1="1044.6797" y2="1044.6797"/><text fill="#000000" font-family="sans-serif" font-size="13" lengthAdjust="spacing" textLength="91" x="225" y="1039.6138">Review posted</text><polygon fill="#181818" points="35,1069.8125,25,1073.8125,35,1077.8125,31,1073.8125" style="stroke:#181818;stroke-width:1.0;"/><line style="stroke:#181818;stroke-width:1.0;stroke-dasharray:2.0,2.0;" x1="29" x2="207" y1="1073.8125" y2="1073.8125"/><text fill="#000000" font-family="sans-serif" font-size="13" lengthAdjust="spacing" textLength="116" x="41" y="1068.7466">Success message</text><polygon fill="#181818" points="196,1098.9453,206,1102.9453,196,1106.9453,200,1102.9453" style="stroke:#181818;stroke-width:1.0;"/><line style="stroke:#181818;stroke-width:1.0;" x1="24" x2="202" y1="1102.9453" y2="1102.9453"/><text fill="#000000" font-family="sans-serif" font-size="13" lengthAdjust="spacing" textLength="130" x="31" y="1097.8794">Submit movie rating</text><polygon fill="#181818" points="434,1128.0781,444,1132.0781,434,1136.0781,438,1132.0781" style="stroke:#181818;stroke-width:1.0;"/><line style="stroke:#181818;stroke-width:1.0;" x1="208" x2="440" y1="1132.0781" y2="1132.0781"/><text fill="#000000" font-family="sans-serif" font-size="13" lengthAdjust="spacing" textLength="149" x="215" y="1127.0122">POST /movies/{id}/rate</text><polygon fill="#181818" points="978,1157.2109,988,1161.2109,978,1165.2109,982,1161.2109" style="stroke:#181818;stroke-width:1.0;"/><line style="stroke:#181818;stroke-width:1.0;" x1="446" x2="984" y1="1161.2109" y2="1161.2109"/><text fill="#000000" font-family="sans-serif" font-size="13" lengthAdjust="spacing" textLength="97" x="453" y="1156.145">validate(rating)</text><polygon fill="#181818" points="843,1186.3438,833,1190.3438,843,1194.3438,839,1190.3438" style="stroke:#181818;stroke-width:1.0;"/><line style="stroke:#181818;stroke-width:1.0;" x1="837" x2="989" y1="1190.3438" y2="1190.3438"/><text fill="#000000" font-family="sans-serif" font-size="13" lengthAdjust="spacing" textLength="134" x="849" y="1185.2778">Check if movie exists</text><polygon fill="#181818" points="978,1215.4766,988,1219.4766,978,1223.4766,982,1219.4766" style="stroke:#181818;stroke-width:1.0;"/><line style="stroke:#181818;stroke-width:1.0;stroke-dasharray:2.0,2.0;" x1="832" x2="984" y1="1219.4766" y2="1219.4766"/><text fill="#000000" font-family="sans-serif" font-size="13" lengthAdjust="spacing" textLength="78" x="839" y="1214.4106">Movie exists</text><polygon fill="#181818" points="843,1244.6094,833,1248.6094,843,1252.6094,839,1248.6094" style="stroke:#181818;stroke-width:1.0;"/><line style="stroke:#181818;stroke-width:1.0;" x1="837" x2="989" y1="1248.6094" y2="1248.6094"/><text fill="#000000" font-family="sans-serif" font-size="13" lengthAdjust="spacing" textLength="73" x="849" y="1243.5435">Save rating</text><polygon fill="#181818" points="978,1273.7422,988,1277.7422,978,1281.7422,982,1277.7422" style="stroke:#181818;stroke-width:1.0;"/><line style="stroke:#181818;stroke-width:1.0;stroke-dasharray:2.0,2.0;" x1="832" x2="984" y1="1277.7422" y2="1277.7422"/><text fill="#000000" font-family="sans-serif" font-size="13" lengthAdjust="spacing" textLength="97" x="839" y="1272.6763">Rating updated</text><polygon fill="#181818" points="457,1302.875,447,1306.875,457,1310.875,453,1306.875" style="stroke:#181818;stroke-width:1.0;"/><line style="stroke:#181818;stroke-width:1.0;stroke-dasharray:2.0,2.0;" x1="451" x2="989" y1="1306.875" y2="1306.875"/><text fill="#000000" font-family="sans-serif" font-size="13" lengthAdjust="spacing" textLength="158" x="463" y="1301.8091">Response (Rating saved)</text><polygon fill="#181818" points="219,1332.0078,209,1336.0078,219,1340.0078,215,1336.0078" style="stroke:#181818;stroke-width:1.0;"/><line style="stroke:#181818;stroke-width:1.0;stroke-dasharray:2.0,2.0;" x1="213" x2="445" y1="1336.0078" y2="1336.0078"/><text fill="#000000" font-family="sans-serif" font-size="13" lengthAdjust="spacing" textLength="110" x="225" y="1330.9419">Rating successful</text><polygon fill="#181818" points="196,1361.1406,206,1365.1406,196,1369.1406,200,1365.1406" style="stroke:#181818;stroke-width:1.0;"/><line style="stroke:#181818;stroke-width:1.0;" x1="24" x2="202" y1="1365.1406" y2="1365.1406"/><text fill="#000000" font-family="sans-serif" font-size="13" lengthAdjust="spacing" textLength="144" x="31" y="1360.0747">Add movie to favorites</text><polygon fill="#181818" points="434,1390.2734,444,1394.2734,434,1398.2734,438,1394.2734" style="stroke:#181818;stroke-width:1.0;"/><line style="stroke:#181818;stroke-width:1.0;" x1="208" x2="440" y1="1394.2734" y2="1394.2734"/><text fill="#000000" font-family="sans-serif" font-size="13" lengthAdjust="spacing" textLength="136" x="215" y="1389.2075">POST /users/favorites</text><polygon fill="#181818" points="651,1419.4063,661,1423.4063,651,1427.4063,655,1423.4063" style="stroke:#181818;stroke-width:1.0;"/><line style="stroke:#181818;stroke-width:1.0;" x1="446" x2="657" y1="1423.4063" y2="1423.4063"/><text fill="#000000" font-family="sans-serif" font-size="13" lengthAdjust="spacing" textLength="101" x="453" y="1418.3403">Add to favorites</text><polygon fill="#181818" points="820,1448.5391,830,1452.5391,820,1456.5391,824,1452.5391" style="stroke:#181818;stroke-width:1.0;"/><line style="stroke:#181818;stroke-width:1.0;" x1="663" x2="826" y1="1452.5391" y2="1452.5391"/><text fill="#000000" font-family="sans-serif" font-size="13" lengthAdjust="spacing" textLength="106" x="670" y="1447.4731">Update favorites</text><polygon fill="#181818" points="674,1477.6719,664,1481.6719,674,1485.6719,670,1481.6719" style="stroke:#181818;stroke-width:1.0;"/><line style="stroke:#181818;stroke-width:1.0;stroke-dasharray:2.0,2.0;" x1="668" x2="831" y1="1481.6719" y2="1481.6719"/><text fill="#000000" font-family="sans-serif" font-size="13" lengthAdjust="spacing" textLength="115" x="680" y="1476.606">Favorites updated</text><polygon fill="#181818" points="457,1506.8047,447,1510.8047,457,1514.8047,453,1510.8047" style="stroke:#181818;stroke-width:1.0;"/><line style="stroke:#181818;stroke-width:1.0;stroke-dasharray:2.0,2.0;" x1="451" x2="662" y1="1510.8047" y2="1510.8047"/><text fill="#000000" font-family="sans-serif" font-size="13" lengthAdjust="spacing" textLength="193" x="463" y="1505.7388">Response (Added to favorites)</text><polygon fill="#181818" points="219,1535.9375,209,1539.9375,219,1543.9375,215,1539.9375" style="stroke:#181818;stroke-width:1.0;"/><line style="stroke:#181818;stroke-width:1.0;stroke-dasharray:2.0,2.0;" x1="213" x2="445" y1="1539.9375" y2="1539.9375"/><text fill="#000000" font-family="sans-serif" font-size="13" lengthAdjust="spacing" textLength="116" x="225" y="1534.8716">Success message</text><polygon fill="#181818" points="35,1565.0703,25,1569.0703,35,1573.0703,31,1569.0703" style="stroke:#181818;stroke-width:1.0;"/><line style="stroke:#181818;stroke-width:1.0;stroke-dasharray:2.0,2.0;" x1="29" x2="207" y1="1569.0703" y2="1569.0703"/><text fill="#000000" font-family="sans-serif" font-size="13" lengthAdjust="spacing" textLength="157" x="41" y="1564.0044">Movie added to favorites</text><!--MD5=[3e1fabf47a79508c88e8a833d557bd2b]
@startuml
' Registration Sequence
actor "User" as User
participant "Frontend" as Frontend
participant "API" as API
participant "UsersController" as UsersController
participant "Database" as Database

User -> Frontend: Fill Registration Form
Frontend -> API: POST /users/register
API -> UsersController: validate(request)
UsersController -> Database: Check if email exists
Database - -> UsersController: Email not found
UsersController -> Database: Save new user
Database - -> UsersController: User created
UsersController - -> API: Response (User created)
API - -> Frontend: Registration successful

' Login Sequence
User -> Frontend: Fill Login Form
Frontend -> API: POST /users/login
API -> UsersController: validate(credentials)
UsersController -> Database: Check user credentials
Database - -> UsersController: Valid credentials
UsersController - -> API: Token generated
API - -> Frontend: Login successful
Frontend - -> User: Welcome message

' Browsing and Searching
User -> Frontend: Search or Browse Movies
Frontend -> API: GET /movies?query=search_term
API -> MoviesController: Fetch movies
MoviesController -> Database: Query movies
Database - -> MoviesController: Movie list
MoviesController - -> API: Movie data
API - -> Frontend: Render movie list

' Writing a Review
User -> Frontend: Write and submit review
Frontend -> API: POST /movies/{id}/reviews
API -> MoviesController: validate(review)
MoviesController -> Database: Check if movie exists
Database - -> MoviesController: Movie exists
MoviesController -> Database: Save review
Database - -> MoviesController: Review saved
MoviesController - -> API: Response (Review added)
API - -> Frontend: Review posted
Frontend - -> User: Success message

' Rating a Movie
User -> Frontend: Submit movie rating
Frontend -> API: POST /movies/{id}/rate
API -> MoviesController: validate(rating)
MoviesController -> Database: Check if movie exists
Database - -> MoviesController: Movie exists
MoviesController -> Database: Save rating
Database - -> MoviesController: Rating updated
MoviesController - -> API: Response (Rating saved)
API - -> Frontend: Rating successful

' Adding to Favorites
User -> Frontend: Add movie to favorites
Frontend -> API: POST /users/favorites
API -> UsersController: Add to favorites
UsersController -> Database: Update favorites
Database - -> UsersController: Favorites updated
UsersController - -> API: Response (Added to favorites)
API - -> Frontend: Success message
Frontend - -> User: Movie added to favorites
@enduml

@startuml
actor "User" as User
participant "Frontend" as Frontend
participant "API" as API
participant "UsersController" as UsersController
participant "Database" as Database

User -> Frontend: Fill Registration Form
Frontend -> API: POST /users/register
API -> UsersController: validate(request)
UsersController -> Database: Check if email exists
Database - -> UsersController: Email not found
UsersController -> Database: Save new user
Database - -> UsersController: User created
UsersController - -> API: Response (User created)
API - -> Frontend: Registration successful

User -> Frontend: Fill Login Form
Frontend -> API: POST /users/login
API -> UsersController: validate(credentials)
UsersController -> Database: Check user credentials
Database - -> UsersController: Valid credentials
UsersController - -> API: Token generated
API - -> Frontend: Login successful
Frontend - -> User: Welcome message

User -> Frontend: Search or Browse Movies
Frontend -> API: GET /movies?query=search_term
API -> MoviesController: Fetch movies
MoviesController -> Database: Query movies
Database - -> MoviesController: Movie list
MoviesController - -> API: Movie data
API - -> Frontend: Render movie list

User -> Frontend: Write and submit review
Frontend -> API: POST /movies/{id}/reviews
API -> MoviesController: validate(review)
MoviesController -> Database: Check if movie exists
Database - -> MoviesController: Movie exists
MoviesController -> Database: Save review
Database - -> MoviesController: Review saved
MoviesController - -> API: Response (Review added)
API - -> Frontend: Review posted
Frontend - -> User: Success message

User -> Frontend: Submit movie rating
Frontend -> API: POST /movies/{id}/rate
API -> MoviesController: validate(rating)
MoviesController -> Database: Check if movie exists
Database - -> MoviesController: Movie exists
MoviesController -> Database: Save rating
Database - -> MoviesController: Rating updated
MoviesController - -> API: Response (Rating saved)
API - -> Frontend: Rating successful

User -> Frontend: Add movie to favorites
Frontend -> API: POST /users/favorites
API -> UsersController: Add to favorites
UsersController -> Database: Update favorites
Database - -> UsersController: Favorites updated
UsersController - -> API: Response (Added to favorites)
API - -> Frontend: Success message
Frontend - -> User: Movie added to favorites
@enduml

PlantUML version 1.2022.7(Mon Aug 22 17:01:30 UTC 2022)
(GPL source distribution)
Java Runtime: OpenJDK Runtime Environment
JVM: OpenJDK 64-Bit Server VM
Default Encoding: UTF-8
Language: en
Country: null
--></g></svg>